STARTFONT 2.1
COMMENT ======================================================================
COMMENT     This font is Copyright (C) 1993 by Darren S. Embry.
COMMENT 
COMMENT     You may make modifications to this font as you wish, as long as
COMMENT     you document those changes and this notice is not removed.
COMMENT ======================================================================
FONT -dse-cantontypewriter-medium-r-normal--18-128-100-100-c-120-iso8859-1
SIZE 24 75 75
FONTBOUNDINGBOX 10 18 0 -4
STARTPROPERTIES 20
FONTNAME_REGISTRY ""
FOUNDRY "dse"
FAMILY_NAME "cantontypewriter"
WEIGHT_NAME "medium"
SLANT "r"
SETWIDTH_NAME "normal"
ADD_STYLE_NAME ""
PIXEL_SIZE 18
POINT_SIZE 128
RESOLUTION_X 100
RESOLUTION_Y 100
SPACING "C"
AVERAGE_WIDTH 120
CHARSET_REGISTRY "ISO8859"
CHARSET_ENCODING "1"
DEFAULT_CHAR 32
FONT_DESCENT 4
FONT_ASCENT 13
COPYRIGHT "Copyright (C) 1993 by Darren S. Embry."
_XMBDFED_INFO "Edited with xmbdfed 4.5."
ENDPROPERTIES
CHARS 239
STARTCHAR char11
ENCODING 11
SWIDTH 400 0
DWIDTH 10 0
BBX 10 18 0 -4
BITMAP
0000
0800
0800
0800
0800
0800
0800
0800
0800
F800
0000
0000
0000
0000
0000
0000
0000
0000
ENDCHAR
STARTCHAR char12
ENCODING 12
SWIDTH 400 0
DWIDTH 10 0
BBX 10 18 0 -4
BITMAP
0000
0000
0000
0000
0000
0000
0000
0000
0000
F800
0800
0800
0800
0800
0800
0800
0800
0800
ENDCHAR
STARTCHAR char13
ENCODING 13
SWIDTH 400 0
DWIDTH 10 0
BBX 10 18 0 -4
BITMAP
0000
0000
0000
0000
0000
0000
0000
0000
0000
0FC0
0800
0800
0800
0800
0800
0800
0800
0800
ENDCHAR
STARTCHAR char14
ENCODING 14
SWIDTH 400 0
DWIDTH 10 0
BBX 10 18 0 -4
BITMAP
0000
0800
0800
0800
0800
0800
0800
0800
0800
0FC0
0000
0000
0000
0000
0000
0000
0000
0000
ENDCHAR
STARTCHAR char15
ENCODING 15
SWIDTH 400 0
DWIDTH 10 0
BBX 10 18 0 -4
BITMAP
0000
0800
0800
0800
0800
0800
0800
0800
0800
FFC0
0800
0800
0800
0800
0800
0800
0800
0800
ENDCHAR
STARTCHAR char16
ENCODING 16
SWIDTH 400 0
DWIDTH 10 0
BBX 10 18 0 -4
BITMAP
0000
FFC0
0000
0000
0000
0000
0000
0000
0000
0000
0000
0000
0000
0000
0000
0000
0000
0000
ENDCHAR
STARTCHAR char17
ENCODING 17
SWIDTH 400 0
DWIDTH 10 0
BBX 10 18 0 -4
BITMAP
0000
0000
0000
0000
0000
FFC0
0000
0000
0000
0000
0000
0000
0000
0000
0000
0000
0000
0000
ENDCHAR
STARTCHAR char18
ENCODING 18
SWIDTH 400 0
DWIDTH 10 0
BBX 10 18 0 -4
BITMAP
0000
0000
0000
0000
0000
0000
0000
0000
0000
FFC0
0000
0000
0000
0000
0000
0000
0000
0000
ENDCHAR
STARTCHAR char19
ENCODING 19
SWIDTH 400 0
DWIDTH 10 0
BBX 10 18 0 -4
BITMAP
0000
0000
0000
0000
0000
0000
0000
0000
0000
0000
0000
0000
0000
FFC0
0000
0000
0000
0000
ENDCHAR
STARTCHAR char20
ENCODING 20
SWIDTH 400 0
DWIDTH 10 0
BBX 10 18 0 -4
BITMAP
0000
0000
0000
0000
0000
0000
0000
0000
0000
0000
0000
0000
0000
0000
0000
0000
0000
FFC0
ENDCHAR
STARTCHAR char21
ENCODING 21
SWIDTH 400 0
DWIDTH 10 0
BBX 10 18 0 -4
BITMAP
0000
0800
0800
0800
0800
0800
0800
0800
0800
0FC0
0800
0800
0800
0800
0800
0800
0800
0800
ENDCHAR
STARTCHAR char22
ENCODING 22
SWIDTH 400 0
DWIDTH 10 0
BBX 10 18 0 -4
BITMAP
0000
0800
0800
0800
0800
0800
0800
0800
0800
F800
0800
0800
0800
0800
0800
0800
0800
0800
ENDCHAR
STARTCHAR char23
ENCODING 23
SWIDTH 400 0
DWIDTH 10 0
BBX 10 18 0 -4
BITMAP
0000
0800
0800
0800
0800
0800
0800
0800
0800
FFC0
0000
0000
0000
0000
0000
0000
0000
0000
ENDCHAR
STARTCHAR char24
ENCODING 24
SWIDTH 400 0
DWIDTH 10 0
BBX 10 18 0 -4
BITMAP
0000
0000
0000
0000
0000
0000
0000
0000
0000
FFC0
0800
0800
0800
0800
0800
0800
0800
0800
ENDCHAR
STARTCHAR char25
ENCODING 25
SWIDTH 400 0
DWIDTH 10 0
BBX 10 18 0 -4
BITMAP
0000
0800
0800
0800
0800
0800
0800
0800
0800
0800
0800
0800
0800
0800
0800
0800
0800
0800
ENDCHAR
STARTCHAR char32
ENCODING 32
SWIDTH 400 0
DWIDTH 10 0
BBX 10 18 0 -4
BITMAP
0000
0000
0000
0000
0000
0000
0000
0000
0000
0000
0000
0000
0000
0000
0000
0000
0000
0000
ENDCHAR
STARTCHAR char33
ENCODING 33
SWIDTH 400 0
DWIDTH 10 0
BBX 10 18 0 -4
BITMAP
0000
0000
0000
0800
1C00
1C00
1C00
0800
0800
0000
0000
0800
1C00
0800
0000
0000
0000
0000
ENDCHAR
STARTCHAR char34
ENCODING 34
SWIDTH 400 0
DWIDTH 10 0
BBX 10 18 0 -4
BITMAP
0000
0000
0000
2200
7700
7700
2200
2200
0000
0000
0000
0000
0000
0000
0000
0000
0000
0000
ENDCHAR
STARTCHAR char35
ENCODING 35
SWIDTH 400 0
DWIDTH 10 0
BBX 10 18 0 -4
BITMAP
0000
0000
0000
0480
0480
0900
0900
1200
FF80
1200
2400
FF80
2400
4800
4800
9000
9000
0000
ENDCHAR
STARTCHAR char36
ENCODING 36
SWIDTH 400 0
DWIDTH 10 0
BBX 10 18 0 -4
BITMAP
0000
0000
0800
0800
1E00
2B00
4900
6800
3E00
0B00
0900
4900
6A00
3C00
0800
0800
0000
0000
ENDCHAR
STARTCHAR char37
ENCODING 37
SWIDTH 400 0
DWIDTH 10 0
BBX 10 18 0 -4
BITMAP
0000
0000
0000
0000
3100
5A00
8A00
D400
6800
0B00
1580
2880
2D00
4600
0000
0000
0000
0000
ENDCHAR
STARTCHAR char38
ENCODING 38
SWIDTH 400 0
DWIDTH 10 0
BBX 10 18 0 -4
BITMAP
0000
0000
0000
0000
1800
2C00
4400
6800
3180
5900
8A00
8C00
D680
6300
0000
0000
0000
0000
ENDCHAR
STARTCHAR char39
ENCODING 39
SWIDTH 400 0
DWIDTH 10 0
BBX 10 18 0 -4
BITMAP
0000
0000
0000
0800
1C00
1C00
0800
0800
0000
0000
0000
0000
0000
0000
0000
0000
0000
0000
ENDCHAR
STARTCHAR char40
ENCODING 40
SWIDTH 400 0
DWIDTH 10 0
BBX 10 18 0 -4
BITMAP
0000
0000
0000
0200
0400
0800
0800
1000
1000
1000
1000
1000
1800
0800
0C00
0700
0200
0000
ENDCHAR
STARTCHAR char41
ENCODING 41
SWIDTH 400 0
DWIDTH 10 0
BBX 10 18 0 -4
BITMAP
0000
0000
0000
2000
7000
1800
0800
0C00
0400
0400
0400
0400
0400
0800
0800
1000
2000
0000
ENDCHAR
STARTCHAR char42
ENCODING 42
SWIDTH 400 0
DWIDTH 10 0
BBX 10 18 0 -4
BITMAP
0000
0000
0000
0800
4900
6B00
1C00
1C00
6B00
4900
0800
0000
0000
0000
0000
0000
0000
0000
ENDCHAR
STARTCHAR char43
ENCODING 43
SWIDTH 400 0
DWIDTH 10 0
BBX 10 18 0 -4
BITMAP
0000
0000
0000
0000
0000
0000
0800
0800
0800
7F00
0800
0800
0800
0000
0000
0000
0000
0000
ENDCHAR
STARTCHAR char44
ENCODING 44
SWIDTH 400 0
DWIDTH 10 0
BBX 10 18 0 -4
BITMAP
0000
0000
0000
0000
0000
0000
0000
0000
0000
0000
0000
0800
1C00
0C00
0800
1000
2000
0000
ENDCHAR
STARTCHAR char45
ENCODING 45
SWIDTH 400 0
DWIDTH 10 0
BBX 10 18 0 -4
BITMAP
0000
0000
0000
0000
0000
0000
0000
0000
0000
7F00
0000
0000
0000
0000
0000
0000
0000
0000
ENDCHAR
STARTCHAR char46
ENCODING 46
SWIDTH 400 0
DWIDTH 10 0
BBX 10 18 0 -4
BITMAP
0000
0000
0000
0000
0000
0000
0000
0000
0000
0000
0000
0800
1C00
0800
0000
0000
0000
0000
ENDCHAR
STARTCHAR char47
ENCODING 47
SWIDTH 400 0
DWIDTH 10 0
BBX 10 18 0 -4
BITMAP
0000
0000
0000
0100
0100
0200
0200
0400
0400
0800
0800
1000
1000
2000
2000
4000
4000
0000
ENDCHAR
STARTCHAR char48
ENCODING 48
SWIDTH 400 0
DWIDTH 10 0
BBX 10 18 0 -4
BITMAP
0000
0000
0000
0000
1C00
2600
2300
4100
4900
4900
4100
6200
3200
1C00
0000
0000
0000
0000
ENDCHAR
STARTCHAR char49
ENCODING 49
SWIDTH 400 0
DWIDTH 10 0
BBX 10 18 0 -4
BITMAP
0000
0000
0000
0000
0800
1800
6800
0800
0800
0800
0800
0800
0800
7F00
0000
0000
0000
0000
ENDCHAR
STARTCHAR char50
ENCODING 50
SWIDTH 400 0
DWIDTH 10 0
BBX 10 18 0 -4
BITMAP
0000
0000
0000
0000
1E00
2300
4100
0100
0200
0400
0800
1000
2100
7F00
0000
0000
0000
0000
ENDCHAR
STARTCHAR char51
ENCODING 51
SWIDTH 400 0
DWIDTH 10 0
BBX 10 18 0 -4
BITMAP
0000
0000
0000
0000
1E00
2300
4100
0200
0E00
0300
0100
4100
6200
3C00
0000
0000
0000
0000
ENDCHAR
STARTCHAR char52
ENCODING 52
SWIDTH 400 0
DWIDTH 10 0
BBX 10 18 0 -4
BITMAP
0000
0000
0000
0000
0100
0200
0400
0800
1200
2200
7F00
0200
0200
0700
0000
0000
0000
0000
ENDCHAR
STARTCHAR char53
ENCODING 53
SWIDTH 400 0
DWIDTH 10 0
BBX 10 18 0 -4
BITMAP
0000
0000
0000
0000
3F00
2000
2000
2000
3E00
0300
0100
4100
6200
3C00
0000
0000
0000
0000
ENDCHAR
STARTCHAR char54
ENCODING 54
SWIDTH 400 0
DWIDTH 10 0
BBX 10 18 0 -4
BITMAP
0000
0000
0000
0000
0600
1800
2000
2000
4E00
5300
6100
4100
6200
3C00
0000
0000
0000
0000
ENDCHAR
STARTCHAR char55
ENCODING 55
SWIDTH 400 0
DWIDTH 10 0
BBX 10 18 0 -4
BITMAP
0000
0000
0000
0000
7F00
4100
4200
0400
0400
0800
1000
1000
2000
2000
0000
0000
0000
0000
ENDCHAR
STARTCHAR char56
ENCODING 56
SWIDTH 400 0
DWIDTH 10 0
BBX 10 18 0 -4
BITMAP
0000
0000
0000
0000
1E00
2300
4100
6200
1C00
2300
4100
4100
6200
3C00
0000
0000
0000
0000
ENDCHAR
STARTCHAR char57
ENCODING 57
SWIDTH 400 0
DWIDTH 10 0
BBX 10 18 0 -4
BITMAP
0000
0000
0000
0000
1E00
2300
4100
4300
6500
3900
0200
0200
0C00
3000
0000
0000
0000
0000
ENDCHAR
STARTCHAR char58
ENCODING 58
SWIDTH 400 0
DWIDTH 10 0
BBX 10 18 0 -4
BITMAP
0000
0000
0000
0000
0000
0000
0800
1C00
0800
0000
0000
0800
1C00
0800
0000
0000
0000
0000
ENDCHAR
STARTCHAR char59
ENCODING 59
SWIDTH 400 0
DWIDTH 10 0
BBX 10 18 0 -4
BITMAP
0000
0000
0000
0000
0000
0000
0800
1C00
0800
0000
0000
0800
1C00
0C00
0800
1000
2000
0000
ENDCHAR
STARTCHAR char60
ENCODING 60
SWIDTH 400 0
DWIDTH 10 0
BBX 10 18 0 -4
BITMAP
0000
0000
0000
0000
0000
0100
0600
0800
3000
4000
3000
0800
0600
0100
0000
0000
0000
0000
ENDCHAR
STARTCHAR char61
ENCODING 61
SWIDTH 400 0
DWIDTH 10 0
BBX 10 18 0 -4
BITMAP
0000
0000
0000
0000
0000
0000
0000
0000
7F00
0000
0000
7F00
0000
0000
0000
0000
0000
0000
ENDCHAR
STARTCHAR char62
ENCODING 62
SWIDTH 400 0
DWIDTH 10 0
BBX 10 18 0 -4
BITMAP
0000
0000
0000
0000
0000
4000
3000
0800
0600
0100
0600
0800
3000
4000
0000
0000
0000
0000
ENDCHAR
STARTCHAR char63
ENCODING 63
SWIDTH 400 0
DWIDTH 10 0
BBX 10 18 0 -4
BITMAP
0000
0000
0000
0000
1E00
2300
4100
0200
0400
0800
0000
0800
1C00
0800
0000
0000
0000
0000
ENDCHAR
STARTCHAR char64
ENCODING 64
SWIDTH 400 0
DWIDTH 10 0
BBX 10 18 0 -4
BITMAP
0000
0000
0000
0000
1F00
6180
4480
8A80
9280
9280
9B00
CE00
6000
3E00
0000
0000
0000
0000
ENDCHAR
STARTCHAR char65
ENCODING 65
SWIDTH 400 0
DWIDTH 10 0
BBX 10 18 0 -4
BITMAP
0000
0000
0000
0000
0800
0800
1C00
1400
1400
2200
3E00
4300
4100
E380
0000
0000
0000
0000
ENDCHAR
STARTCHAR char66
ENCODING 66
SWIDTH 400 0
DWIDTH 10 0
BBX 10 18 0 -4
BITMAP
0000
0000
0000
0000
FC00
2600
2200
2400
3E00
2300
2100
2100
2200
FC00
0000
0000
0000
0000
ENDCHAR
STARTCHAR char67
ENCODING 67
SWIDTH 400 0
DWIDTH 10 0
BBX 10 18 0 -4
BITMAP
0000
0000
0000
0000
0D00
3300
2100
4100
4000
4000
4000
6100
3200
1C00
0000
0000
0000
0000
ENDCHAR
STARTCHAR char68
ENCODING 68
SWIDTH 400 0
DWIDTH 10 0
BBX 10 18 0 -4
BITMAP
0000
0000
0000
0000
FC00
2600
2300
2100
2100
2100
2100
2200
2600
F800
0000
0000
0000
0000
ENDCHAR
STARTCHAR char69
ENCODING 69
SWIDTH 400 0
DWIDTH 10 0
BBX 10 18 0 -4
BITMAP
0000
0000
0000
0000
FF00
2100
2100
2400
3C00
2400
2000
2100
2100
FF00
0000
0000
0000
0000
ENDCHAR
STARTCHAR char70
ENCODING 70
SWIDTH 400 0
DWIDTH 10 0
BBX 10 18 0 -4
BITMAP
0000
0000
0000
0000
FF00
2100
2100
2000
2400
3C00
2400
2000
2000
F800
0000
0000
0000
0000
ENDCHAR
STARTCHAR char71
ENCODING 71
SWIDTH 400 0
DWIDTH 10 0
BBX 10 18 0 -4
BITMAP
0000
0000
0000
0000
0D00
3300
2100
4000
4000
4780
4100
6100
3300
1D00
0000
0000
0000
0000
ENDCHAR
STARTCHAR char72
ENCODING 72
SWIDTH 400 0
DWIDTH 10 0
BBX 10 18 0 -4
BITMAP
0000
0000
0000
0000
E380
4100
4100
4100
7F00
4100
4100
4100
4100
E380
0000
0000
0000
0000
ENDCHAR
STARTCHAR char73
ENCODING 73
SWIDTH 400 0
DWIDTH 10 0
BBX 10 18 0 -4
BITMAP
0000
0000
0000
0000
3E00
0800
0800
0800
0800
0800
0800
0800
0800
3E00
0000
0000
0000
0000
ENDCHAR
STARTCHAR char74
ENCODING 74
SWIDTH 400 0
DWIDTH 10 0
BBX 10 18 0 -4
BITMAP
0000
0000
0000
0000
3E00
0800
0800
0800
0800
0800
0800
0800
1000
1000
1000
2000
4000
8000
ENDCHAR
STARTCHAR char75
ENCODING 75
SWIDTH 400 0
DWIDTH 10 0
BBX 10 18 0 -4
BITMAP
0000
0000
0000
0000
E380
4200
4400
4800
5800
6400
4400
4200
4100
E380
0000
0000
0000
0000
ENDCHAR
STARTCHAR char76
ENCODING 76
SWIDTH 400 0
DWIDTH 10 0
BBX 10 18 0 -4
BITMAP
0000
0000
0000
0000
F800
2000
2000
2000
2000
2000
2000
2100
2100
FF00
0000
0000
0000
0000
ENDCHAR
STARTCHAR char77
ENCODING 77
SWIDTH 400 0
DWIDTH 10 0
BBX 10 18 0 -4
BITMAP
0000
0000
0000
0000
C180
6300
6300
7500
5500
5900
4900
4900
4100
E380
0000
0000
0000
0000
ENDCHAR
STARTCHAR char78
ENCODING 78
SWIDTH 400 0
DWIDTH 10 0
BBX 10 18 0 -4
BITMAP
0000
0000
0000
0000
C380
6100
7100
5100
5900
4D00
4500
4700
4300
E100
0000
0000
0000
0000
ENDCHAR
STARTCHAR char79
ENCODING 79
SWIDTH 400 0
DWIDTH 10 0
BBX 10 18 0 -4
BITMAP
0000
0000
0000
0000
1E00
2300
4100
4100
4100
4100
4100
4100
6200
3C00
0000
0000
0000
0000
ENDCHAR
STARTCHAR char80
ENCODING 80
SWIDTH 400 0
DWIDTH 10 0
BBX 10 18 0 -4
BITMAP
0000
0000
0000
0000
FE00
2300
2100
2100
2200
3C00
2000
2000
2000
F800
0000
0000
0000
0000
ENDCHAR
STARTCHAR char81
ENCODING 81
SWIDTH 400 0
DWIDTH 10 0
BBX 10 18 0 -4
BITMAP
0000
0000
0000
0000
1E00
2300
4100
4100
4100
4100
4100
4100
6200
3C00
0800
0C00
0700
0000
ENDCHAR
STARTCHAR char82
ENCODING 82
SWIDTH 400 0
DWIDTH 10 0
BBX 10 18 0 -4
BITMAP
0000
0000
0000
0000
FE00
2300
2100
2100
2200
3C00
2C00
2600
2300
F980
0000
0000
0000
0000
ENDCHAR
STARTCHAR char83
ENCODING 83
SWIDTH 400 0
DWIDTH 10 0
BBX 10 18 0 -4
BITMAP
0000
0000
0000
0000
1E00
2300
4100
6000
3E00
0300
0100
4100
6200
3C00
0000
0000
0000
0000
ENDCHAR
STARTCHAR char84
ENCODING 84
SWIDTH 400 0
DWIDTH 10 0
BBX 10 18 0 -4
BITMAP
0000
0000
0000
0000
7F00
4900
4900
0800
0800
0800
0800
0800
0800
3E00
0000
0000
0000
0000
ENDCHAR
STARTCHAR char85
ENCODING 85
SWIDTH 400 0
DWIDTH 10 0
BBX 10 18 0 -4
BITMAP
0000
0000
0000
0000
E380
4100
4100
4100
4100
4100
4100
4100
6200
3C00
0000
0000
0000
0000
ENDCHAR
STARTCHAR char86
ENCODING 86
SWIDTH 400 0
DWIDTH 10 0
BBX 10 18 0 -4
BITMAP
0000
0000
0000
0000
E380
4100
6200
2200
3200
1400
1400
1800
0800
0800
0000
0000
0000
0000
ENDCHAR
STARTCHAR char87
ENCODING 87
SWIDTH 400 0
DWIDTH 10 0
BBX 10 18 0 -4
BITMAP
0000
0000
0000
0000
E380
4900
4900
4D00
5500
7500
3600
2200
2200
2200
0000
0000
0000
0000
ENDCHAR
STARTCHAR char88
ENCODING 88
SWIDTH 400 0
DWIDTH 10 0
BBX 10 18 0 -4
BITMAP
0000
0000
0000
0000
E380
2200
3200
1400
1800
0C00
1400
2600
2200
E380
0000
0000
0000
0000
ENDCHAR
STARTCHAR char89
ENCODING 89
SWIDTH 400 0
DWIDTH 10 0
BBX 10 18 0 -4
BITMAP
0000
0000
0000
0000
E380
4100
6200
3200
1400
1800
0800
0800
0800
3E00
0000
0000
0000
0000
ENDCHAR
STARTCHAR char90
ENCODING 90
SWIDTH 400 0
DWIDTH 10 0
BBX 10 18 0 -4
BITMAP
0000
0000
0000
0000
7F00
4200
4200
0400
0800
1000
1000
2100
4100
7F00
0000
0000
0000
0000
ENDCHAR
STARTCHAR char91
ENCODING 91
SWIDTH 400 0
DWIDTH 10 0
BBX 10 18 0 -4
BITMAP
0000
0000
0000
1C00
1000
1000
1000
1000
1000
1000
1000
1000
1000
1000
1000
1000
1C00
0000
ENDCHAR
STARTCHAR char92
ENCODING 92
SWIDTH 400 0
DWIDTH 10 0
BBX 10 18 0 -4
BITMAP
0000
0000
0000
4000
4000
2000
2000
1000
1000
0800
0800
0400
0400
0200
0200
0100
0100
0000
ENDCHAR
STARTCHAR char93
ENCODING 93
SWIDTH 400 0
DWIDTH 10 0
BBX 10 18 0 -4
BITMAP
0000
0000
0000
1C00
0400
0400
0400
0400
0400
0400
0400
0400
0400
0400
0400
0400
1C00
0000
ENDCHAR
STARTCHAR char94
ENCODING 94
SWIDTH 400 0
DWIDTH 10 0
BBX 10 18 0 -4
BITMAP
0000
0000
0000
0800
1400
2200
4100
0000
0000
0000
0000
0000
0000
0000
0000
0000
0000
0000
ENDCHAR
STARTCHAR char95
ENCODING 95
SWIDTH 400 0
DWIDTH 10 0
BBX 10 18 0 -4
BITMAP
0000
0000
0000
0000
0000
0000
0000
0000
0000
0000
0000
0000
0000
0000
0000
0000
0000
7F00
ENDCHAR
STARTCHAR char96
ENCODING 96
SWIDTH 400 0
DWIDTH 10 0
BBX 10 18 0 -4
BITMAP
0000
0000
0000
0000
3000
1C00
0600
0000
0000
0000
0000
0000
0000
0000
0000
0000
0000
0000
ENDCHAR
STARTCHAR char97
ENCODING 97
SWIDTH 400 0
DWIDTH 10 0
BBX 10 18 0 -4
BITMAP
0000
0000
0000
0000
0000
0000
1E00
2300
0100
1F00
2100
4100
6300
3C80
0000
0000
0000
0000
ENDCHAR
STARTCHAR char98
ENCODING 98
SWIDTH 400 0
DWIDTH 10 0
BBX 10 18 0 -4
BITMAP
0000
0000
0000
C000
4000
4000
4E00
5300
6100
4100
4100
4100
6200
5C00
0000
0000
0000
0000
ENDCHAR
STARTCHAR char99
ENCODING 99
SWIDTH 400 0
DWIDTH 10 0
BBX 10 18 0 -4
BITMAP
0000
0000
0000
0000
0000
0000
1E00
2300
4100
4000
4000
4000
6100
3E00
0000
0000
0000
0000
ENDCHAR
STARTCHAR char100
ENCODING 100
SWIDTH 400 0
DWIDTH 10 0
BBX 10 18 0 -4
BITMAP
0000
0000
0000
0700
0100
0100
1D00
2300
4100
4100
4100
4300
6500
3980
0000
0000
0000
0000
ENDCHAR
STARTCHAR char101
ENCODING 101
SWIDTH 400 0
DWIDTH 10 0
BBX 10 18 0 -4
BITMAP
0000
0000
0000
0000
0000
0000
1E00
2300
4100
7E00
4000
4000
6100
3E00
0000
0000
0000
0000
ENDCHAR
STARTCHAR char102
ENCODING 102
SWIDTH 400 0
DWIDTH 10 0
BBX 10 18 0 -4
BITMAP
0000
0000
0000
0E00
1300
1000
7C00
1000
1000
1000
1000
1000
1000
7C00
0000
0000
0000
0000
ENDCHAR
STARTCHAR char103
ENCODING 103
SWIDTH 400 0
DWIDTH 10 0
BBX 10 18 0 -4
BITMAP
0000
0000
0000
0000
0300
0200
3E00
4300
4100
4100
6100
3E00
1000
3E00
4300
6100
3E00
0000
ENDCHAR
STARTCHAR char104
ENCODING 104
SWIDTH 400 0
DWIDTH 10 0
BBX 10 18 0 -4
BITMAP
0000
0000
0000
C000
4000
4000
4E00
5300
6100
4100
4100
4100
4100
E380
0000
0000
0000
0000
ENDCHAR
STARTCHAR char105
ENCODING 105
SWIDTH 400 0
DWIDTH 10 0
BBX 10 18 0 -4
BITMAP
0000
0000
0800
1C00
0800
0000
3800
0800
0800
0800
0800
0800
0800
7F00
0000
0000
0000
0000
ENDCHAR
STARTCHAR char106
ENCODING 106
SWIDTH 400 0
DWIDTH 10 0
BBX 10 18 0 -4
BITMAP
0000
0000
0400
0E00
0400
0000
1C00
0400
0400
0400
0400
0400
0400
0800
0800
1000
2000
4000
ENDCHAR
STARTCHAR char107
ENCODING 107
SWIDTH 400 0
DWIDTH 10 0
BBX 10 18 0 -4
BITMAP
0000
0000
0000
C000
4000
4000
4700
4400
4800
5000
6800
4400
4200
E380
0000
0000
0000
0000
ENDCHAR
STARTCHAR char108
ENCODING 108
SWIDTH 400 0
DWIDTH 10 0
BBX 10 18 0 -4
BITMAP
0000
0000
0000
3800
0800
0800
0800
0800
0800
0800
0800
0800
0800
7F00
0000
0000
0000
0000
ENDCHAR
STARTCHAR char109
ENCODING 109
SWIDTH 400 0
DWIDTH 10 0
BBX 10 18 0 -4
BITMAP
0000
0000
0000
0000
0000
0000
DB00
6D00
4900
4900
4900
4900
4900
ED80
0000
0000
0000
0000
ENDCHAR
STARTCHAR char110
ENCODING 110
SWIDTH 400 0
DWIDTH 10 0
BBX 10 18 0 -4
BITMAP
0000
0000
0000
0000
0000
0000
CE00
5300
6100
4100
4100
4100
4100
E380
0000
0000
0000
0000
ENDCHAR
STARTCHAR char111
ENCODING 111
SWIDTH 400 0
DWIDTH 10 0
BBX 10 18 0 -4
BITMAP
0000
0000
0000
0000
0000
0000
1E00
2300
4100
4100
4100
4100
6200
3C00
0000
0000
0000
0000
ENDCHAR
STARTCHAR char112
ENCODING 112
SWIDTH 400 0
DWIDTH 10 0
BBX 10 18 0 -4
BITMAP
0000
0000
0000
0000
0000
0000
CE00
5300
6100
4100
4100
4100
6200
5C00
4000
4000
F000
0000
ENDCHAR
STARTCHAR char113
ENCODING 113
SWIDTH 400 0
DWIDTH 10 0
BBX 10 18 0 -4
BITMAP
0000
0000
0000
0000
0000
0000
1D00
2300
4100
4100
4100
4300
6500
3900
0100
0100
0780
0000
ENDCHAR
STARTCHAR char114
ENCODING 114
SWIDTH 400 0
DWIDTH 10 0
BBX 10 18 0 -4
BITMAP
0000
0000
0000
0000
0000
0000
EE00
3300
2100
2000
2000
2000
2000
FC00
0000
0000
0000
0000
ENDCHAR
STARTCHAR char115
ENCODING 115
SWIDTH 400 0
DWIDTH 10 0
BBX 10 18 0 -4
BITMAP
0000
0000
0000
0000
0000
0000
3E00
4300
6000
3E00
0300
4100
6100
3E00
0000
0000
0000
0000
ENDCHAR
STARTCHAR char116
ENCODING 116
SWIDTH 400 0
DWIDTH 10 0
BBX 10 18 0 -4
BITMAP
0000
0000
0000
0000
1000
1000
7E00
1000
1000
1000
1000
1000
1900
0E00
0000
0000
0000
0000
ENDCHAR
STARTCHAR char117
ENCODING 117
SWIDTH 400 0
DWIDTH 10 0
BBX 10 18 0 -4
BITMAP
0000
0000
0000
0000
0000
0000
C300
4100
4100
4100
4100
4300
6500
3980
0000
0000
0000
0000
ENDCHAR
STARTCHAR char118
ENCODING 118
SWIDTH 400 0
DWIDTH 10 0
BBX 10 18 0 -4
BITMAP
0000
0000
0000
0000
0000
0000
E380
4100
6200
2200
3400
1400
1800
0800
0000
0000
0000
0000
ENDCHAR
STARTCHAR char119
ENCODING 119
SWIDTH 400 0
DWIDTH 10 0
BBX 10 18 0 -4
BITMAP
0000
0000
0000
0000
0000
0000
E380
4900
4900
4D00
7600
2600
2200
2200
0000
0000
0000
0000
ENDCHAR
STARTCHAR char120
ENCODING 120
SWIDTH 400 0
DWIDTH 10 0
BBX 10 18 0 -4
BITMAP
0000
0000
0000
0000
0000
0000
E380
2200
3400
1800
0C00
1600
2200
E380
0000
0000
0000
0000
ENDCHAR
STARTCHAR char121
ENCODING 121
SWIDTH 400 0
DWIDTH 10 0
BBX 10 18 0 -4
BITMAP
0000
0000
0000
0000
0000
0000
E380
4100
6200
2200
3400
1400
1800
0800
1000
E000
4000
0000
ENDCHAR
STARTCHAR char122
ENCODING 122
SWIDTH 400 0
DWIDTH 10 0
BBX 10 18 0 -4
BITMAP
0000
0000
0000
0000
0000
0000
7F00
4200
0400
0800
0800
1000
2100
7F00
0000
0000
0000
0000
ENDCHAR
STARTCHAR char123
ENCODING 123
SWIDTH 400 0
DWIDTH 10 0
BBX 10 18 0 -4
BITMAP
0000
0000
0000
0200
0400
0800
0800
0800
0800
1000
2000
1000
0800
0800
0800
0800
0400
0200
ENDCHAR
STARTCHAR char124
ENCODING 124
SWIDTH 400 0
DWIDTH 10 0
BBX 10 18 0 -4
BITMAP
0000
0000
0000
0800
0800
0800
0800
0800
0800
0800
0800
0800
0800
0800
0800
0800
0800
0000
ENDCHAR
STARTCHAR char125
ENCODING 125
SWIDTH 400 0
DWIDTH 10 0
BBX 10 18 0 -4
BITMAP
0000
0000
0000
2000
1000
0800
0800
0800
0800
0400
0200
0400
0800
0800
0800
0800
1000
2000
ENDCHAR
STARTCHAR char126
ENCODING 126
SWIDTH 400 0
DWIDTH 10 0
BBX 10 18 0 -4
BITMAP
0000
0000
0000
0000
0000
0000
0000
0000
0000
3080
5D00
8600
0000
0000
0000
0000
0000
0000
ENDCHAR
STARTCHAR char127
ENCODING 127
SWIDTH 400 0
DWIDTH 10 0
BBX 10 18 0 -4
BITMAP
0000
0000
0000
0000
0000
0000
0000
0000
0000
0000
0000
0000
0000
0000
0000
0000
0000
0000
ENDCHAR
STARTCHAR char128
ENCODING 128
SWIDTH 400 0
DWIDTH 10 0
BBX 10 18 0 -4
BITMAP
0000
0000
0000
0000
0000
0000
0000
0000
0000
0000
0000
0000
0000
0000
0000
0000
0000
0000
ENDCHAR
STARTCHAR char129
ENCODING 129
SWIDTH 400 0
DWIDTH 10 0
BBX 10 18 0 -4
BITMAP
0000
0000
0000
0000
0000
0000
0000
0000
0000
0000
0000
0000
0000
0000
0000
0000
0000
0000
ENDCHAR
STARTCHAR char130
ENCODING 130
SWIDTH 400 0
DWIDTH 10 0
BBX 10 18 0 -4
BITMAP
0000
0000
0000
0000
0000
0000
0000
0000
0000
0000
0000
0000
0000
0000
0000
0000
0000
0000
ENDCHAR
STARTCHAR char131
ENCODING 131
SWIDTH 400 0
DWIDTH 10 0
BBX 10 18 0 -4
BITMAP
0000
0000
0000
0000
0000
0000
0000
0000
0000
0000
0000
0000
0000
0000
0000
0000
0000
0000
ENDCHAR
STARTCHAR char132
ENCODING 132
SWIDTH 400 0
DWIDTH 10 0
BBX 10 18 0 -4
BITMAP
0000
0000
0000
0000
0000
0000
0000
0000
0000
0000
0000
0000
0000
0000
0000
0000
0000
0000
ENDCHAR
STARTCHAR char133
ENCODING 133
SWIDTH 400 0
DWIDTH 10 0
BBX 10 18 0 -4
BITMAP
0000
0000
0000
0000
0000
0000
0000
0000
0000
0000
0000
0000
0000
0000
0000
0000
0000
0000
ENDCHAR
STARTCHAR char134
ENCODING 134
SWIDTH 400 0
DWIDTH 10 0
BBX 10 18 0 -4
BITMAP
0000
0000
0000
0000
0000
0000
0000
0000
0000
0000
0000
0000
0000
0000
0000
0000
0000
0000
ENDCHAR
STARTCHAR char135
ENCODING 135
SWIDTH 400 0
DWIDTH 10 0
BBX 10 18 0 -4
BITMAP
0000
0000
0000
0000
0000
0000
0000
0000
0000
0000
0000
0000
0000
0000
0000
0000
0000
0000
ENDCHAR
STARTCHAR char136
ENCODING 136
SWIDTH 400 0
DWIDTH 10 0
BBX 10 18 0 -4
BITMAP
0000
0000
0000
0000
0000
0000
0000
0000
0000
0000
0000
0000
0000
0000
0000
0000
0000
0000
ENDCHAR
STARTCHAR char137
ENCODING 137
SWIDTH 400 0
DWIDTH 10 0
BBX 10 18 0 -4
BITMAP
0000
0000
0000
0000
0000
0000
0000
0000
0000
0000
0000
0000
0000
0000
0000
0000
0000
0000
ENDCHAR
STARTCHAR char138
ENCODING 138
SWIDTH 400 0
DWIDTH 10 0
BBX 10 18 0 -4
BITMAP
0000
0000
0000
0000
0000
0000
0000
0000
0000
0000
0000
0000
0000
0000
0000
0000
0000
0000
ENDCHAR
STARTCHAR char139
ENCODING 139
SWIDTH 400 0
DWIDTH 10 0
BBX 10 18 0 -4
BITMAP
0000
0000
0000
0000
0000
0000
0000
0000
0000
0000
0000
0000
0000
0000
0000
0000
0000
0000
ENDCHAR
STARTCHAR char140
ENCODING 140
SWIDTH 400 0
DWIDTH 10 0
BBX 10 18 0 -4
BITMAP
0000
0000
0000
0000
0000
0000
0000
0000
0000
0000
0000
0000
0000
0000
0000
0000
0000
0000
ENDCHAR
STARTCHAR char141
ENCODING 141
SWIDTH 400 0
DWIDTH 10 0
BBX 10 18 0 -4
BITMAP
0000
0000
0000
0000
0000
0000
0000
0000
0000
0000
0000
0000
0000
0000
0000
0000
0000
0000
ENDCHAR
STARTCHAR char142
ENCODING 142
SWIDTH 400 0
DWIDTH 10 0
BBX 10 18 0 -4
BITMAP
0000
0000
0000
0000
0000
0000
0000
0000
0000
0000
0000
0000
0000
0000
0000
0000
0000
0000
ENDCHAR
STARTCHAR char143
ENCODING 143
SWIDTH 400 0
DWIDTH 10 0
BBX 10 18 0 -4
BITMAP
0000
0000
0000
0000
0000
0000
0000
0000
0000
0000
0000
0000
0000
0000
0000
0000
0000
0000
ENDCHAR
STARTCHAR char144
ENCODING 144
SWIDTH 400 0
DWIDTH 10 0
BBX 10 18 0 -4
BITMAP
0000
0000
0000
0000
0000
0000
0000
0000
0000
0000
0000
0000
0000
0000
0000
0000
0000
0000
ENDCHAR
STARTCHAR char145
ENCODING 145
SWIDTH 400 0
DWIDTH 10 0
BBX 10 18 0 -4
BITMAP
0000
0000
0000
0000
0000
0000
0000
0000
0000
0000
0000
0000
0000
0000
0000
0000
0000
0000
ENDCHAR
STARTCHAR char146
ENCODING 146
SWIDTH 400 0
DWIDTH 10 0
BBX 10 18 0 -4
BITMAP
0000
0000
0000
0000
0000
0000
0000
0000
0000
0000
0000
0000
0000
0000
0000
0000
0000
0000
ENDCHAR
STARTCHAR char147
ENCODING 147
SWIDTH 400 0
DWIDTH 10 0
BBX 10 18 0 -4
BITMAP
0000
0000
0000
0000
0000
0000
0000
0000
0000
0000
0000
0000
0000
0000
0000
0000
0000
0000
ENDCHAR
STARTCHAR char148
ENCODING 148
SWIDTH 400 0
DWIDTH 10 0
BBX 10 18 0 -4
BITMAP
0000
0000
0000
0000
0000
0000
0000
0000
0000
0000
0000
0000
0000
0000
0000
0000
0000
0000
ENDCHAR
STARTCHAR char149
ENCODING 149
SWIDTH 400 0
DWIDTH 10 0
BBX 10 18 0 -4
BITMAP
0000
0000
0000
0000
0000
0000
0000
0000
0000
0000
0000
0000
0000
0000
0000
0000
0000
0000
ENDCHAR
STARTCHAR char150
ENCODING 150
SWIDTH 400 0
DWIDTH 10 0
BBX 10 18 0 -4
BITMAP
0000
0000
0000
0000
0000
0000
0000
0000
0000
0000
0000
0000
0000
0000
0000
0000
0000
0000
ENDCHAR
STARTCHAR char151
ENCODING 151
SWIDTH 400 0
DWIDTH 10 0
BBX 10 18 0 -4
BITMAP
0000
0000
0000
0000
0000
0000
0000
0000
0000
0000
0000
0000
0000
0000
0000
0000
0000
0000
ENDCHAR
STARTCHAR char152
ENCODING 152
SWIDTH 400 0
DWIDTH 10 0
BBX 10 18 0 -4
BITMAP
0000
0000
0000
0000
0000
0000
0000
0000
0000
0000
0000
0000
0000
0000
0000
0000
0000
0000
ENDCHAR
STARTCHAR char153
ENCODING 153
SWIDTH 400 0
DWIDTH 10 0
BBX 10 18 0 -4
BITMAP
0000
0000
0000
0000
0000
0000
0000
0000
0000
0000
0000
0000
0000
0000
0000
0000
0000
0000
ENDCHAR
STARTCHAR char154
ENCODING 154
SWIDTH 400 0
DWIDTH 10 0
BBX 10 18 0 -4
BITMAP
0000
0000
0000
0000
0000
0000
0000
0000
0000
0000
0000
0000
0000
0000
0000
0000
0000
0000
ENDCHAR
STARTCHAR char155
ENCODING 155
SWIDTH 400 0
DWIDTH 10 0
BBX 10 18 0 -4
BITMAP
0000
0000
0000
0000
0000
0000
0000
0000
0000
0000
0000
0000
0000
0000
0000
0000
0000
0000
ENDCHAR
STARTCHAR char156
ENCODING 156
SWIDTH 400 0
DWIDTH 10 0
BBX 10 18 0 -4
BITMAP
0000
0000
0000
0000
0000
0000
0000
0000
0000
0000
0000
0000
0000
0000
0000
0000
0000
0000
ENDCHAR
STARTCHAR char157
ENCODING 157
SWIDTH 400 0
DWIDTH 10 0
BBX 10 18 0 -4
BITMAP
0000
0000
0000
0000
0000
0000
0000
0000
0000
0000
0000
0000
0000
0000
0000
0000
0000
0000
ENDCHAR
STARTCHAR char158
ENCODING 158
SWIDTH 400 0
DWIDTH 10 0
BBX 10 18 0 -4
BITMAP
0000
0000
0000
0000
0000
0000
0000
0000
0000
0000
0000
0000
0000
0000
0000
0000
0000
0000
ENDCHAR
STARTCHAR char159
ENCODING 159
SWIDTH 400 0
DWIDTH 10 0
BBX 10 18 0 -4
BITMAP
0000
0000
0000
0000
0000
0000
0000
0000
0000
0000
0000
0000
0000
0000
0000
0000
0000
0000
ENDCHAR
STARTCHAR char160
ENCODING 160
SWIDTH 400 0
DWIDTH 10 0
BBX 10 18 0 -4
BITMAP
0000
0000
0000
0000
0000
0000
0000
0000
0000
0000
0000
0000
0000
0000
0000
0000
0000
0000
ENDCHAR
STARTCHAR char161
ENCODING 161
SWIDTH 400 0
DWIDTH 10 0
BBX 10 18 0 -4
BITMAP
0000
0000
0000
0000
0000
0000
0800
1C00
0800
0000
0000
0800
0800
1C00
1C00
1C00
0800
0000
ENDCHAR
STARTCHAR char162
ENCODING 162
SWIDTH 400 0
DWIDTH 10 0
BBX 10 18 0 -4
BITMAP
0000
0000
0000
0100
0100
0200
1E00
2700
4500
4800
4800
5000
7100
3E00
2000
4000
4000
0000
ENDCHAR
STARTCHAR char163
ENCODING 163
SWIDTH 400 0
DWIDTH 10 0
BBX 10 18 0 -4
BITMAP
0000
0000
0000
0000
1C00
2600
2600
3000
7C00
1000
1000
7880
DC80
6700
0000
0000
0000
0000
ENDCHAR
STARTCHAR char164
ENCODING 164
SWIDTH 400 0
DWIDTH 10 0
BBX 10 18 0 -4
BITMAP
0000
0000
0000
0000
0000
C180
7F00
3600
6300
4100
6300
3600
7F00
C180
0000
0000
0000
0000
ENDCHAR
STARTCHAR char165
ENCODING 165
SWIDTH 400 0
DWIDTH 10 0
BBX 10 18 0 -4
BITMAP
0000
0000
0000
0000
E380
4100
6200
3200
7F00
1800
7F00
0800
0800
3E00
0000
0000
0000
0000
ENDCHAR
STARTCHAR char166
ENCODING 166
SWIDTH 400 0
DWIDTH 10 0
BBX 10 18 0 -4
BITMAP
0000
0000
0000
0800
0800
0800
0800
0800
0000
0000
0000
0000
0800
0800
0800
0800
0800
0000
ENDCHAR
STARTCHAR char167
ENCODING 167
SWIDTH 400 0
DWIDTH 10 0
BBX 10 18 0 -4
BITMAP
0000
0000
0000
1C00
2600
2200
3000
1800
2C00
2600
3200
1A00
0C00
0600
2200
3200
1C00
0000
ENDCHAR
STARTCHAR char168
ENCODING 168
SWIDTH 400 0
DWIDTH 10 0
BBX 10 18 0 -4
BITMAP
0000
0000
0000
2200
7700
2200
0000
0000
0000
0000
0000
0000
0000
0000
0000
0000
0000
0000
ENDCHAR
STARTCHAR char169
ENCODING 169
SWIDTH 400 0
DWIDTH 10 0
BBX 10 18 0 -4
BITMAP
0000
0000
0000
0000
3E00
4100
9C80
B680
A080
A080
B680
9C80
4100
3E00
0000
0000
0000
0000
ENDCHAR
STARTCHAR char170
ENCODING 170
SWIDTH 400 0
DWIDTH 10 0
BBX 10 18 0 -4
BITMAP
0000
0000
1E00
2300
0100
1F00
2100
4100
6300
3C80
0000
3E00
0000
0000
0000
0000
0000
0000
ENDCHAR
STARTCHAR char171
ENCODING 171
SWIDTH 400 0
DWIDTH 10 0
BBX 10 18 0 -4
BITMAP
0000
0000
0000
0000
0000
0000
0880
1100
2200
6600
CC00
6600
2200
1100
0880
0000
0000
0000
ENDCHAR
STARTCHAR char172
ENCODING 172
SWIDTH 400 0
DWIDTH 10 0
BBX 10 18 0 -4
BITMAP
0000
0000
0000
0000
0000
0000
0000
0000
7F00
0100
0100
0100
0000
0000
0000
0000
0000
0000
ENDCHAR
STARTCHAR char173
ENCODING 173
SWIDTH 400 0
DWIDTH 10 0
BBX 10 18 0 -4
BITMAP
0000
0000
0000
0000
0000
0000
0000
0000
0000
3E00
0000
0000
0000
0000
0000
0000
0000
0000
ENDCHAR
STARTCHAR char174
ENCODING 174
SWIDTH 400 0
DWIDTH 10 0
BBX 10 18 0 -4
BITMAP
0000
0000
0000
0000
3E00
4100
BC80
A680
A280
BC80
A680
A280
4100
3E00
0000
0000
0000
0000
ENDCHAR
STARTCHAR char175
ENCODING 175
SWIDTH 400 0
DWIDTH 10 0
BBX 10 18 0 -4
BITMAP
0000
0000
0000
3E00
0000
0000
0000
0000
0000
0000
0000
0000
0000
0000
0000
0000
0000
0000
ENDCHAR
STARTCHAR char176
ENCODING 176
SWIDTH 400 0
DWIDTH 10 0
BBX 10 18 0 -4
BITMAP
0000
0000
0000
1C00
2200
2200
2200
1C00
0000
0000
0000
0000
0000
0000
0000
0000
0000
0000
ENDCHAR
STARTCHAR char177
ENCODING 177
SWIDTH 400 0
DWIDTH 10 0
BBX 10 18 0 -4
BITMAP
0000
0000
0000
0000
0000
0800
0800
0800
7F00
0800
0800
0800
0000
7F00
0000
0000
0000
0000
ENDCHAR
STARTCHAR char178
ENCODING 178
SWIDTH 400 0
DWIDTH 10 0
BBX 10 18 0 -4
BITMAP
0000
0000
0000
1C00
2600
0200
0400
0800
1200
3E00
0000
0000
0000
0000
0000
0000
0000
0000
ENDCHAR
STARTCHAR char179
ENCODING 179
SWIDTH 400 0
DWIDTH 10 0
BBX 10 18 0 -4
BITMAP
0000
0000
0000
1C00
2600
0200
0C00
0600
2200
1C00
0000
0000
0000
0000
0000
0000
0000
0000
ENDCHAR
STARTCHAR char180
ENCODING 180
SWIDTH 400 0
DWIDTH 10 0
BBX 10 18 0 -4
BITMAP
0000
0000
0200
0400
0800
1000
2000
0000
0000
0000
0000
0000
0000
0000
0000
0000
0000
0000
ENDCHAR
STARTCHAR char181
ENCODING 181
SWIDTH 400 0
DWIDTH 10 0
BBX 10 18 0 -4
BITMAP
0000
0000
0000
0000
0000
0000
6300
2100
2100
2100
4200
4200
6600
5900
8000
8000
8000
0000
ENDCHAR
STARTCHAR char182
ENCODING 182
SWIDTH 400 0
DWIDTH 10 0
BBX 10 18 0 -4
BITMAP
0000
0000
0000
1F00
3A00
7A00
7A00
7A00
3A00
1A00
0A00
0A00
0A00
0A00
0A00
0A00
0A00
0000
ENDCHAR
STARTCHAR char183
ENCODING 183
SWIDTH 400 0
DWIDTH 10 0
BBX 10 18 0 -4
BITMAP
0000
0000
0000
0000
0000
0000
0000
0000
0800
1C00
0800
0000
0000
0000
0000
0000
0000
0000
ENDCHAR
STARTCHAR char184
ENCODING 184
SWIDTH 400 0
DWIDTH 10 0
BBX 10 18 0 -4
BITMAP
0000
0000
0000
0000
0000
0000
0000
0000
0000
0000
0000
0000
0000
0800
1000
1C00
0600
1C00
ENDCHAR
STARTCHAR char185
ENCODING 185
SWIDTH 400 0
DWIDTH 10 0
BBX 10 18 0 -4
BITMAP
0000
0000
0000
0800
3800
0800
0800
0800
0800
3E00
0000
0000
0000
0000
0000
0000
0000
0000
ENDCHAR
STARTCHAR char186
ENCODING 186
SWIDTH 400 0
DWIDTH 10 0
BBX 10 18 0 -4
BITMAP
0000
0000
1E00
2300
4100
4100
4100
4100
6200
3C00
0000
3E00
0000
0000
0000
0000
0000
0000
ENDCHAR
STARTCHAR char187
ENCODING 187
SWIDTH 400 0
DWIDTH 10 0
BBX 10 18 0 -4
BITMAP
0000
0000
0000
0000
0000
0000
8800
4400
2200
3300
1980
3300
2200
4400
8800
0000
0000
0000
ENDCHAR
STARTCHAR char188
ENCODING 188
SWIDTH 400 0
DWIDTH 10 0
BBX 10 18 0 -4
BITMAP
0000
0800
3800
0800
0800
0800
0800
3E00
0000
7F00
0000
0200
0400
0800
1400
3E00
0400
0E00
ENDCHAR
STARTCHAR char189
ENCODING 189
SWIDTH 400 0
DWIDTH 10 0
BBX 10 18 0 -4
BITMAP
0000
0800
3800
0800
0800
0800
0800
3E00
0000
7F00
0000
1C00
2600
0200
0400
0800
1200
3E00
ENDCHAR
STARTCHAR char190
ENCODING 190
SWIDTH 400 0
DWIDTH 10 0
BBX 10 18 0 -4
BITMAP
0000
1C00
2600
0200
0C00
0600
2200
1C00
0000
7F00
0000
0200
0400
0800
1400
3E00
0400
0E00
ENDCHAR
STARTCHAR char191
ENCODING 191
SWIDTH 400 0
DWIDTH 10 0
BBX 10 18 0 -4
BITMAP
0000
0000
0000
0000
0000
0000
0800
1C00
0800
0000
0800
1000
2000
4100
6200
3C00
0000
0000
ENDCHAR
STARTCHAR char192
ENCODING 192
SWIDTH 400 0
DWIDTH 10 0
BBX 10 18 0 -4
BITMAP
3000
0C00
0200
0000
0800
0800
1C00
1400
1400
2200
3E00
4300
4100
E380
0000
0000
0000
0000
ENDCHAR
STARTCHAR char193
ENCODING 193
SWIDTH 400 0
DWIDTH 10 0
BBX 10 18 0 -4
BITMAP
0600
1800
2000
0000
0800
0800
1C00
1400
1400
2200
3E00
4300
4100
E380
0000
0000
0000
0000
ENDCHAR
STARTCHAR char194
ENCODING 194
SWIDTH 400 0
DWIDTH 10 0
BBX 10 18 0 -4
BITMAP
0800
1400
2200
0000
0800
0800
1C00
1400
1400
2200
3E00
4300
4100
E380
0000
0000
0000
0000
ENDCHAR
STARTCHAR char195
ENCODING 195
SWIDTH 400 0
DWIDTH 10 0
BBX 10 18 0 -4
BITMAP
3100
5D00
4600
0000
0800
0800
1C00
1400
1400
2200
3E00
4300
4100
E380
0000
0000
0000
0000
ENDCHAR
STARTCHAR char196
ENCODING 196
SWIDTH 400 0
DWIDTH 10 0
BBX 10 18 0 -4
BITMAP
2200
7700
2200
0000
0800
0800
1C00
1400
1400
2200
3E00
4300
4100
E380
0000
0000
0000
0000
ENDCHAR
STARTCHAR char197
ENCODING 197
SWIDTH 400 0
DWIDTH 10 0
BBX 10 18 0 -4
BITMAP
1C00
2200
1C00
0000
0800
0800
1C00
1400
1400
2200
3E00
4300
4100
E380
0000
0000
0000
0000
ENDCHAR
STARTCHAR char198
ENCODING 198
SWIDTH 400 0
DWIDTH 10 0
BBX 10 18 0 -4
BITMAP
0000
0000
0000
0000
1F80
0C80
1480
1400
1700
2400
3C00
2480
4480
EF80
0000
0000
0000
0000
ENDCHAR
STARTCHAR char199
ENCODING 199
SWIDTH 400 0
DWIDTH 10 0
BBX 10 18 0 -4
BITMAP
0000
0000
0000
0000
0D00
3300
2100
4100
4000
4000
4000
6100
3200
1C00
0800
0C00
0600
1C00
ENDCHAR
STARTCHAR char200
ENCODING 200
SWIDTH 400 0
DWIDTH 10 0
BBX 10 18 0 -4
BITMAP
3000
0C00
0200
0000
FF00
2100
2100
2400
3C00
2400
2000
2100
2100
FF00
0000
0000
0000
0000
ENDCHAR
STARTCHAR char201
ENCODING 201
SWIDTH 400 0
DWIDTH 10 0
BBX 10 18 0 -4
BITMAP
0600
1800
2000
0000
FF00
2100
2100
2400
3C00
2400
2000
2100
2100
FF00
0000
0000
0000
0000
ENDCHAR
STARTCHAR char202
ENCODING 202
SWIDTH 400 0
DWIDTH 10 0
BBX 10 18 0 -4
BITMAP
0800
1400
2200
0000
FF00
2100
2100
2400
3C00
2400
2000
2100
2100
FF00
0000
0000
0000
0000
ENDCHAR
STARTCHAR char203
ENCODING 203
SWIDTH 400 0
DWIDTH 10 0
BBX 10 18 0 -4
BITMAP
2200
7700
2200
0000
FF00
2100
2100
2400
3C00
2400
2000
2100
2100
FF00
0000
0000
0000
0000
ENDCHAR
STARTCHAR char204
ENCODING 204
SWIDTH 400 0
DWIDTH 10 0
BBX 10 18 0 -4
BITMAP
3000
0C00
0200
0000
3E00
0800
0800
0800
0800
0800
0800
0800
0800
3E00
0000
0000
0000
0000
ENDCHAR
STARTCHAR char205
ENCODING 205
SWIDTH 400 0
DWIDTH 10 0
BBX 10 18 0 -4
BITMAP
0600
1800
2000
0000
3E00
0800
0800
0800
0800
0800
0800
0800
0800
3E00
0000
0000
0000
0000
ENDCHAR
STARTCHAR char206
ENCODING 206
SWIDTH 400 0
DWIDTH 10 0
BBX 10 18 0 -4
BITMAP
0800
1400
2200
0000
3E00
0800
0800
0800
0800
0800
0800
0800
0800
3E00
0000
0000
0000
0000
ENDCHAR
STARTCHAR char207
ENCODING 207
SWIDTH 400 0
DWIDTH 10 0
BBX 10 18 0 -4
BITMAP
2200
7700
2200
0000
3E00
0800
0800
0800
0800
0800
0800
0800
0800
3E00
0000
0000
0000
0000
ENDCHAR
STARTCHAR char208
ENCODING 208
SWIDTH 400 0
DWIDTH 10 0
BBX 10 18 0 -4
BITMAP
0000
0000
0000
0000
FC00
2600
2300
2100
2100
F900
2100
2200
2600
F800
0000
0000
0000
0000
ENDCHAR
STARTCHAR char209
ENCODING 209
SWIDTH 400 0
DWIDTH 10 0
BBX 10 18 0 -4
BITMAP
3100
5D00
4600
0000
C380
6100
7100
5100
5900
4D00
4500
4700
4300
E100
0000
0000
0000
0000
ENDCHAR
STARTCHAR char210
ENCODING 210
SWIDTH 400 0
DWIDTH 10 0
BBX 10 18 0 -4
BITMAP
3000
0C00
0200
0000
1E00
2300
4100
4100
4100
4100
4100
4100
6200
3C00
0000
0000
0000
0000
ENDCHAR
STARTCHAR char211
ENCODING 211
SWIDTH 400 0
DWIDTH 10 0
BBX 10 18 0 -4
BITMAP
0600
1800
2000
0000
1E00
2300
4100
4100
4100
4100
4100
4100
6200
3C00
0000
0000
0000
0000
ENDCHAR
STARTCHAR char212
ENCODING 212
SWIDTH 400 0
DWIDTH 10 0
BBX 10 18 0 -4
BITMAP
0800
1400
2200
0000
1E00
2300
4100
4100
4100
4100
4100
4100
6200
3C00
0000
0000
0000
0000
ENDCHAR
STARTCHAR char213
ENCODING 213
SWIDTH 400 0
DWIDTH 10 0
BBX 10 18 0 -4
BITMAP
3100
5D00
4600
0000
1E00
2300
4100
4100
4100
4100
4100
4100
6200
3C00
0000
0000
0000
0000
ENDCHAR
STARTCHAR char214
ENCODING 214
SWIDTH 400 0
DWIDTH 10 0
BBX 10 18 0 -4
BITMAP
2200
7700
2200
0000
1E00
2300
4100
4100
4100
4100
4100
4100
6200
3C00
0000
0000
0000
0000
ENDCHAR
STARTCHAR char215
ENCODING 215
SWIDTH 400 0
DWIDTH 10 0
BBX 10 18 0 -4
BITMAP
0000
0000
0000
0000
0000
0000
4100
2200
1400
0800
1400
2200
4100
0000
0000
0000
0000
0000
ENDCHAR
STARTCHAR char216
ENCODING 216
SWIDTH 400 0
DWIDTH 10 0
BBX 10 18 0 -4
BITMAP
0000
0000
0000
0100
1E00
2300
4500
4500
4900
4900
5100
5100
6200
3C00
4000
0000
0000
0000
ENDCHAR
STARTCHAR char217
ENCODING 217
SWIDTH 400 0
DWIDTH 10 0
BBX 10 18 0 -4
BITMAP
3000
0C00
0200
0000
E380
4100
4100
4100
4100
4100
4100
4100
6200
3C00
0000
0000
0000
0000
ENDCHAR
STARTCHAR char218
ENCODING 218
SWIDTH 400 0
DWIDTH 10 0
BBX 10 18 0 -4
BITMAP
0600
1800
2000
0000
E380
4100
4100
4100
4100
4100
4100
4100
6200
3C00
0000
0000
0000
0000
ENDCHAR
STARTCHAR char219
ENCODING 219
SWIDTH 400 0
DWIDTH 10 0
BBX 10 18 0 -4
BITMAP
0800
1400
2200
0000
E380
4100
4100
4100
4100
4100
4100
4100
6200
3C00
0000
0000
0000
0000
ENDCHAR
STARTCHAR char220
ENCODING 220
SWIDTH 400 0
DWIDTH 10 0
BBX 10 18 0 -4
BITMAP
2200
7700
2200
0000
E380
4100
4100
4100
4100
4100
4100
4100
6200
3C00
0000
0000
0000
0000
ENDCHAR
STARTCHAR char221
ENCODING 221
SWIDTH 400 0
DWIDTH 10 0
BBX 10 18 0 -4
BITMAP
0600
1800
2000
0000
E380
4100
6200
3200
1400
1800
0800
0800
0800
3E00
0000
0000
0000
0000
ENDCHAR
STARTCHAR char222
ENCODING 222
SWIDTH 400 0
DWIDTH 10 0
BBX 10 18 0 -4
BITMAP
0000
0000
0000
0000
F800
2000
3E00
2300
2100
2100
2200
3C00
2000
F800
0000
0000
0000
0000
ENDCHAR
STARTCHAR char223
ENCODING 223
SWIDTH 400 0
DWIDTH 10 0
BBX 10 18 0 -4
BITMAP
0000
0000
0000
0000
0E00
1300
2100
2200
2700
2180
2080
2080
2900
E600
0000
0000
0000
0000
ENDCHAR
STARTCHAR char224
ENCODING 224
SWIDTH 400 0
DWIDTH 10 0
BBX 10 18 0 -4
BITMAP
0000
0000
3000
0C00
0200
0000
1E00
2300
0100
1F00
2100
4100
6300
3C80
0000
0000
0000
0000
ENDCHAR
STARTCHAR char225
ENCODING 225
SWIDTH 400 0
DWIDTH 10 0
BBX 10 18 0 -4
BITMAP
0000
0000
0600
1800
2000
0000
1E00
2300
0100
1F00
2100
4100
6300
3C80
0000
0000
0000
0000
ENDCHAR
STARTCHAR char226
ENCODING 226
SWIDTH 400 0
DWIDTH 10 0
BBX 10 18 0 -4
BITMAP
0000
0000
0800
1400
2200
0000
1E00
2300
0100
1F00
2100
4100
6300
3C80
0000
0000
0000
0000
ENDCHAR
STARTCHAR char227
ENCODING 227
SWIDTH 400 0
DWIDTH 10 0
BBX 10 18 0 -4
BITMAP
0000
0000
3100
5D00
4600
0000
1E00
2300
0100
1F00
2100
4100
6300
3C80
0000
0000
0000
0000
ENDCHAR
STARTCHAR char228
ENCODING 228
SWIDTH 400 0
DWIDTH 10 0
BBX 10 18 0 -4
BITMAP
0000
0000
2200
7700
2200
0000
1E00
2300
0100
1F00
2100
4100
6300
3C80
0000
0000
0000
0000
ENDCHAR
STARTCHAR char229
ENCODING 229
SWIDTH 400 0
DWIDTH 10 0
BBX 10 18 0 -4
BITMAP
0000
1C00
2200
2200
1C00
0000
1E00
2300
0100
1F00
2100
4100
6300
3C80
0000
0000
0000
0000
ENDCHAR
STARTCHAR char230
ENCODING 230
SWIDTH 400 0
DWIDTH 10 0
BBX 10 18 0 -4
BITMAP
0000
0000
0000
0000
0000
0000
3700
5980
0880
3F00
4800
8800
CC80
7700
0000
0000
0000
0000
ENDCHAR
STARTCHAR char231
ENCODING 231
SWIDTH 400 0
DWIDTH 10 0
BBX 10 18 0 -4
BITMAP
0000
0000
0000
0000
0000
0000
1E00
2300
4100
4000
4000
4000
6100
3E00
0800
0C00
0600
1C00
ENDCHAR
STARTCHAR char232
ENCODING 232
SWIDTH 400 0
DWIDTH 10 0
BBX 10 18 0 -4
BITMAP
0000
0000
3000
0C00
0200
0000
1E00
2300
4100
7E00
4000
4000
6100
3E00
0000
0000
0000
0000
ENDCHAR
STARTCHAR char233
ENCODING 233
SWIDTH 400 0
DWIDTH 10 0
BBX 10 18 0 -4
BITMAP
0000
0000
0600
1800
2000
0000
1E00
2300
4100
7E00
4000
4000
6100
3E00
0000
0000
0000
0000
ENDCHAR
STARTCHAR char234
ENCODING 234
SWIDTH 400 0
DWIDTH 10 0
BBX 10 18 0 -4
BITMAP
0000
0000
0800
1400
2200
0000
1E00
2300
4100
7E00
4000
4000
6100
3E00
0000
0000
0000
0000
ENDCHAR
STARTCHAR char235
ENCODING 235
SWIDTH 400 0
DWIDTH 10 0
BBX 10 18 0 -4
BITMAP
0000
0000
2200
7700
2200
0000
1E00
2300
4100
7E00
4000
4000
6100
3E00
0000
0000
0000
0000
ENDCHAR
STARTCHAR char236
ENCODING 236
SWIDTH 400 0
DWIDTH 10 0
BBX 10 18 0 -4
BITMAP
0000
0000
6000
1800
0400
0000
3800
0800
0800
0800
0800
0800
0800
7F00
0000
0000
0000
0000
ENDCHAR
STARTCHAR char237
ENCODING 237
SWIDTH 400 0
DWIDTH 10 0
BBX 10 18 0 -4
BITMAP
0000
0000
0C00
3000
4000
0000
3800
0800
0800
0800
0800
0800
0800
7F00
0000
0000
0000
0000
ENDCHAR
STARTCHAR char238
ENCODING 238
SWIDTH 400 0
DWIDTH 10 0
BBX 10 18 0 -4
BITMAP
0000
0000
1000
2800
4400
0000
3800
0800
0800
0800
0800
0800
0800
7F00
0000
0000
0000
0000
ENDCHAR
STARTCHAR char239
ENCODING 239
SWIDTH 400 0
DWIDTH 10 0
BBX 10 18 0 -4
BITMAP
0000
0000
4400
EE00
4400
0000
3800
0800
0800
0800
0800
0800
0800
7F00
0000
0000
0000
0000
ENDCHAR
STARTCHAR char240
ENCODING 240
SWIDTH 400 0
DWIDTH 10 0
BBX 10 18 0 -4
BITMAP
0000
0000
2200
3600
1800
6C00
4600
1E00
2300
4100
4100
4100
6200
3C00
0000
0000
0000
0000
ENDCHAR
STARTCHAR char241
ENCODING 241
SWIDTH 400 0
DWIDTH 10 0
BBX 10 18 0 -4
BITMAP
0000
0000
3100
5D00
4600
0000
CE00
5300
6100
4100
4100
4100
4100
E380
0000
0000
0000
0000
ENDCHAR
STARTCHAR char242
ENCODING 242
SWIDTH 400 0
DWIDTH 10 0
BBX 10 18 0 -4
BITMAP
0000
0000
3000
0C00
0200
0000
1E00
2300
4100
4100
4100
4100
6200
3C00
0000
0000
0000
0000
ENDCHAR
STARTCHAR char243
ENCODING 243
SWIDTH 400 0
DWIDTH 10 0
BBX 10 18 0 -4
BITMAP
0000
0000
0600
1800
2000
0000
1E00
2300
4100
4100
4100
4100
6200
3C00
0000
0000
0000
0000
ENDCHAR
STARTCHAR char244
ENCODING 244
SWIDTH 400 0
DWIDTH 10 0
BBX 10 18 0 -4
BITMAP
0000
0000
0800
1400
2200
0000
1E00
2300
4100
4100
4100
4100
6200
3C00
0000
0000
0000
0000
ENDCHAR
STARTCHAR char245
ENCODING 245
SWIDTH 400 0
DWIDTH 10 0
BBX 10 18 0 -4
BITMAP
0000
0000
3100
5D00
4600
0000
1E00
2300
4100
4100
4100
4100
6200
3C00
0000
0000
0000
0000
ENDCHAR
STARTCHAR char246
ENCODING 246
SWIDTH 400 0
DWIDTH 10 0
BBX 10 18 0 -4
BITMAP
0000
0000
2200
7700
2200
0000
1E00
2300
4100
4100
4100
4100
6200
3C00
0000
0000
0000
0000
ENDCHAR
STARTCHAR char247
ENCODING 247
SWIDTH 400 0
DWIDTH 10 0
BBX 10 18 0 -4
BITMAP
0000
0000
0000
0000
0000
0800
1C00
0800
0000
7F00
0000
0800
1C00
0800
0000
0000
0000
0000
ENDCHAR
STARTCHAR char248
ENCODING 248
SWIDTH 400 0
DWIDTH 10 0
BBX 10 18 0 -4
BITMAP
0000
0000
0000
0000
0000
0100
1E00
2300
4500
4900
4900
5100
6200
3C00
4000
0000
0000
0000
ENDCHAR
STARTCHAR char249
ENCODING 249
SWIDTH 400 0
DWIDTH 10 0
BBX 10 18 0 -4
BITMAP
0000
0000
3000
0C00
0200
0000
C300
4100
4100
4100
4100
4300
6500
3980
0000
0000
0000
0000
ENDCHAR
STARTCHAR char250
ENCODING 250
SWIDTH 400 0
DWIDTH 10 0
BBX 10 18 0 -4
BITMAP
0000
0000
0600
1800
2000
0000
C300
4100
4100
4100
4100
4300
6500
3980
0000
0000
0000
0000
ENDCHAR
STARTCHAR char251
ENCODING 251
SWIDTH 400 0
DWIDTH 10 0
BBX 10 18 0 -4
BITMAP
0000
0000
0800
1400
2200
0000
C300
4100
4100
4100
4100
4300
6500
3980
0000
0000
0000
0000
ENDCHAR
STARTCHAR char252
ENCODING 252
SWIDTH 400 0
DWIDTH 10 0
BBX 10 18 0 -4
BITMAP
0000
0000
2200
7700
2200
0000
C300
4100
4100
4100
4100
4300
6500
3980
0000
0000
0000
0000
ENDCHAR
STARTCHAR char253
ENCODING 253
SWIDTH 400 0
DWIDTH 10 0
BBX 10 18 0 -4
BITMAP
0000
0000
0600
1800
2000
0000
E380
4100
6200
2200
3400
1400
1800
0800
1000
E000
4000
0000
ENDCHAR
STARTCHAR char254
ENCODING 254
SWIDTH 400 0
DWIDTH 10 0
BBX 10 18 0 -4
BITMAP
0000
0000
0000
C000
4000
4000
4E00
5300
6100
4100
4100
4100
6200
5C00
4000
4000
F000
0000
ENDCHAR
STARTCHAR char255
ENCODING 255
SWIDTH 400 0
DWIDTH 10 0
BBX 10 18 0 -4
BITMAP
0000
0000
2200
7700
2200
0000
E380
4100
6200
2200
3400
1400
1800
0800
1000
E000
4000
0000
ENDCHAR
ENDFONT
